<svg xmlns="http://www.w3.org/2000/svg" xmlns:xlink="http://www.w3.org/1999/xlink" version="1.1" width="24" height="24" viewBox="0 0 1080 1080" xml:space="preserve">
<g transform="matrix(1 0 0 1 540 540)" id="3ff32d42-1205-442f-b51a-688423b9cc59"  >
<rect style="stroke: none; stroke-width: 1; stroke-dasharray: none; stroke-linecap: butt; stroke-dashoffset: 0; stroke-linejoin: miter; stroke-miterlimit: 4; fill: rgb(255,255,255); fill-rule: nonzero; opacity: 1; visibility: hidden;" vector-effect="non-scaling-stroke"  x="-540" y="-540" rx="0" ry="0" width="1080" height="1080" />
</g>
<g transform="matrix(1 0 0 1 540 540)" id="9e7a38db-62c6-4535-b1a4-d15b84e7c29b"  >
</g>
<g transform="matrix(27.69 0 0 27.69 540 540)"  >
<path style="stroke: none; stroke-width: 1; stroke-dasharray: none; stroke-linecap: butt; stroke-dashoffset: 0; stroke-linejoin: miter; stroke-miterlimit: 4; fill: rgb(17,17,17); fill-rule: nonzero; opacity: 1;"  transform=" translate(-19.24, -16.49)" d="M 10.94 25.626 L 6.704 20.125 L 0.201 22.28 L 3.935 16.524 L 0.11 10.777 L 6.7 12.808 L 10.725999999999999 7.334 L 10.866 14.119 L 17.506 16.294 L 10.911999999999999 18.740000000000002 L 10.94 25.626 z M 11.764 32.865 L 25.716 16.472 L 11.806 0.107 L 23.503 0.107 L 38.374 16.496 L 23.574 32.864999999999995 L 11.764000000000001 32.864999999999995 z" stroke-linecap="round" />
</g>
</svg>